<svg width="745" height="658" viewBox="0 0 745 658" fill="none" xmlns="http://www.w3.org/2000/svg">
<g filter="url(#filter0_d_0_181)">
<path fill-rule="evenodd" clip-rule="evenodd" d="M330.695 581.013L125.169 441.697C107.491 429.714 107.629 410.286 125.477 398.303L332.98 258.987C350.828 247.004 379.627 247.004 397.305 258.987L602.831 398.303C620.509 410.286 620.371 429.714 602.524 441.697L395.02 581.013C377.172 592.996 348.373 592.996 330.695 581.013Z" fill="url(#paint0_linear_0_181)"/>
</g>
<g filter="url(#filter1_d_0_181)">
<path fill-rule="evenodd" clip-rule="evenodd" d="M331.838 509.013L125.322 369.697C107.559 357.714 107.559 338.286 125.322 326.303L331.838 186.987C349.6 175.004 378.4 175.004 396.162 186.987L602.678 326.303C620.441 338.286 620.441 357.714 602.678 369.697L396.162 509.013C378.4 520.996 349.6 520.996 331.838 509.013Z" fill="url(#paint1_linear_0_181)"/>
</g>
<g filter="url(#filter2_d_0_181)">
<path fill-rule="evenodd" clip-rule="evenodd" d="M330.838 437.013L124.322 297.697C106.559 285.714 106.559 266.286 124.322 254.303L330.838 114.987C348.6 103.004 377.4 103.004 395.162 114.987L601.678 254.303C619.441 266.286 619.441 285.714 601.678 297.697L395.162 437.013C377.4 448.996 348.6 448.996 330.838 437.013Z" fill="url(#paint2_linear_0_181)"/>
</g>
<rect opacity="0.01" x="179.596" y="159.939" width="162.129" height="102.528" transform="rotate(-56.335 179.596 159.939)" fill="black"/>
<g clip-path="url(#clip0_0_181)">
<path d="M318.636 331.864L304.493 322.445C335.852 320.217 364.827 309.063 394.383 288.109C423.939 267.155 439.258 246.906 441.52 225.299L455.662 234.718C451.226 256.192 435.336 275.95 406.656 296.283C377.976 316.616 349.731 328.147 318.636 331.864ZM351.635 353.843C374.068 368.784 417.562 359.741 458.431 330.767C499.299 301.793 511.095 271.638 488.662 256.697L390.314 191.194C369.832 177.552 328.284 187.562 287.176 216.706C246.068 245.85 232.806 274.698 253.288 288.34L351.635 353.843ZM266.114 279.247C252.459 270.152 265.256 248.004 298.637 224.339C332.016 200.674 363.833 191.193 377.488 200.287C390.574 209.003 377.292 231.048 344.071 254.6C310.85 278.152 279.2 287.962 266.114 279.247Z" fill="url(#paint3_linear_0_181)" fill-opacity="0.85"/>
</g>
<defs>
<filter id="filter0_d_0_181" x="62" y="202" width="604" height="440" filterUnits="userSpaceOnUse" color-interpolation-filters="sRGB">
<feFlood flood-opacity="0" result="BackgroundImageFix"/>
<feColorMatrix in="SourceAlpha" type="matrix" values="0 0 0 0 0 0 0 0 0 0 0 0 0 0 0 0 0 0 127 0" result="hardAlpha"/>
<feOffset dy="2"/>
<feGaussianBlur stdDeviation="25"/>
<feColorMatrix type="matrix" values="0 0 0 0 0 0 0 0 0 0 0 0 0 0 0 0 0 0 0.126147 0"/>
<feBlend mode="normal" in2="BackgroundImageFix" result="effect1_dropShadow_0_181"/>
<feBlend mode="normal" in="SourceGraphic" in2="effect1_dropShadow_0_181" result="shape"/>
</filter>
<filter id="filter1_d_0_181" x="62" y="130" width="604" height="440" filterUnits="userSpaceOnUse" color-interpolation-filters="sRGB">
<feFlood flood-opacity="0" result="BackgroundImageFix"/>
<feColorMatrix in="SourceAlpha" type="matrix" values="0 0 0 0 0 0 0 0 0 0 0 0 0 0 0 0 0 0 127 0" result="hardAlpha"/>
<feOffset dy="2"/>
<feGaussianBlur stdDeviation="25"/>
<feColorMatrix type="matrix" values="0 0 0 0 0 0 0 0 0 0 0 0 0 0 0 0 0 0 0.126147 0"/>
<feBlend mode="normal" in2="BackgroundImageFix" result="effect1_dropShadow_0_181"/>
<feBlend mode="normal" in="SourceGraphic" in2="effect1_dropShadow_0_181" result="shape"/>
</filter>
<filter id="filter2_d_0_181" x="61" y="58" width="604" height="440" filterUnits="userSpaceOnUse" color-interpolation-filters="sRGB">
<feFlood flood-opacity="0" result="BackgroundImageFix"/>
<feColorMatrix in="SourceAlpha" type="matrix" values="0 0 0 0 0 0 0 0 0 0 0 0 0 0 0 0 0 0 127 0" result="hardAlpha"/>
<feOffset dy="2"/>
<feGaussianBlur stdDeviation="25"/>
<feColorMatrix type="matrix" values="0 0 0 0 0 0 0 0 0 0 0 0 0 0 0 0 0 0 0.126147 0"/>
<feBlend mode="normal" in2="BackgroundImageFix" result="effect1_dropShadow_0_181"/>
<feBlend mode="normal" in="SourceGraphic" in2="effect1_dropShadow_0_181" result="shape"/>
</filter>
<linearGradient id="paint0_linear_0_181" x1="112" y1="250" x2="112" y2="590" gradientUnits="userSpaceOnUse">
<stop stop-color="#4DEAD7"/>
<stop offset="1" stop-color="#746AE5"/>
</linearGradient>
<linearGradient id="paint1_linear_0_181" x1="112" y1="178" x2="112" y2="518" gradientUnits="userSpaceOnUse">
<stop stop-color="#B87EAB"/>
<stop offset="1" stop-color="#6AEED6"/>
</linearGradient>
<linearGradient id="paint2_linear_0_181" x1="111" y1="106" x2="111" y2="446" gradientUnits="userSpaceOnUse">
<stop stop-color="#F5EEAB"/>
<stop offset="1" stop-color="#4DBFFF"/>
</linearGradient>
<linearGradient id="paint3_linear_0_181" x1="287.176" y1="216.706" x2="398.276" y2="373.414" gradientUnits="userSpaceOnUse">
<stop stop-color="#B02F2F"/>
<stop offset="1" stop-color="#D92AF7" stop-opacity="0.88"/>
</linearGradient>
<clipPath id="clip0_0_181">
<rect width="167.969" height="205.957" fill="white" transform="matrix(0.815784 -0.578357 0.832293 0.554336 218.663 265.279)"/>
</clipPath>
</defs>
</svg>
